<svg width="13" height="13" viewBox="0 0 13 13" fill="none" xmlns="http://www.w3.org/2000/svg">
<path d="M7.31315 11.8558C9.91927 11.4638 11.9173 9.21505 11.9173 6.49967C11.9173 3.50813 9.49217 1.08301 6.50065 1.08301C3.50911 1.08301 1.08398 3.50813 1.08398 6.49967C1.08398 9.21505 3.08205 11.4638 5.68815 11.8558L5.68815 8.12467H4.87565C4.42692 8.12467 4.06315 7.76089 4.06315 7.31217C4.06315 6.86346 4.42692 6.49967 4.87565 6.49967H5.68815V5.41634C5.68815 4.3693 6.53694 3.52051 7.58398 3.52051H7.85482C8.30353 3.52051 8.66732 3.88427 8.66732 4.33301C8.66732 4.78174 8.30353 5.14551 7.85482 5.14551H7.58398C7.43443 5.14551 7.31315 5.26677 7.31315 5.41634V6.49967H8.12565C8.57437 6.49967 8.93815 6.86346 8.93815 7.31217C8.93815 7.76089 8.57437 8.12467 8.12565 8.12467H7.31315L7.31315 11.8558Z" fill="#1A1C1F"/>
</svg>
