<svg width="13" height="13" viewBox="0 0 13 13" fill="none" xmlns="http://www.w3.org/2000/svg">
<path d="M8.66667 1.625C10.1624 1.625 11.375 2.83756 11.375 4.33333V8.66667C11.375 10.1624 10.1624 11.375 8.66667 11.375H4.33333C2.83756 11.375 1.625 10.1624 1.625 8.66667L1.625 4.33333C1.625 2.83756 2.83756 1.625 4.33333 1.625L8.66667 1.625ZM6.5 4.33333C5.30338 4.33333 4.33333 5.30338 4.33333 6.5C4.33333 7.6966 5.30338 8.66667 6.5 8.66667C7.6966 8.66667 8.66667 7.6966 8.66667 6.5C8.66667 5.30338 7.6966 4.33333 6.5 4.33333ZM6.5 5.41667C7.09833 5.41667 7.58333 5.90168 7.58333 6.5C7.58333 7.09833 7.09833 7.58333 6.5 7.58333C5.90168 7.58333 5.41667 7.09833 5.41667 6.5C5.41667 5.90168 5.90168 5.41667 6.5 5.41667ZM8.9375 3.52083C8.63834 3.52083 8.39583 3.76335 8.39583 4.0625C8.39583 4.36165 8.63834 4.60417 8.9375 4.60417C9.23666 4.60417 9.47917 4.36165 9.47917 4.0625C9.47917 3.76335 9.23666 3.52083 8.9375 3.52083Z" fill="#1A1C1F"/>
</svg>
