<svg width="13" height="13" viewBox="0 0 13 13" fill="none" xmlns="http://www.w3.org/2000/svg">
<path fill-rule="evenodd" clip-rule="evenodd" d="M10.7126 2.399C11.3019 2.15088 11.9336 2.64917 11.8296 3.28005L10.6006 10.7316C10.4821 11.4501 9.69299 11.8623 9.03383 11.5043C8.48225 11.2047 7.6639 10.7436 6.92637 10.2616C6.55809 10.021 5.4304 9.24933 5.56901 8.70002C5.68752 8.23034 7.5833 6.46565 8.66664 5.41617C9.09217 5.00392 8.89836 4.76577 8.3958 5.14534C7.1491 6.08691 5.14755 7.51849 4.48565 7.92138C3.90167 8.27682 3.59675 8.33749 3.23305 8.27682C2.5689 8.16616 1.95314 7.99477 1.45043 7.78639C0.770984 7.50473 0.80408 6.571 1.44997 6.29909L10.7126 2.399Z" fill="#1A1C1F"/>
</svg>
