<svg width="13" height="13" viewBox="0 0 13 13" fill="none" xmlns="http://www.w3.org/2000/svg">
<path fill-rule="evenodd" clip-rule="evenodd" d="M6.50065 1.08301C3.50911 1.08301 1.08398 3.50813 1.08398 6.49967C1.08398 7.52321 1.36839 8.48185 1.86266 9.29917L1.37963 10.9414C1.25744 11.3569 1.64344 11.7429 2.05885 11.6207L3.70116 11.1376C4.51846 11.632 5.47712 11.9163 6.50065 11.9163C9.49217 11.9163 11.9173 9.49119 11.9173 6.49967C11.9173 3.50813 9.49217 1.08301 6.50065 1.08301ZM5.27551 7.7253C6.37103 8.82082 7.41715 8.96523 7.78651 8.97883C8.34833 8.99952 8.89536 8.57047 9.10861 8.07278C9.16088 7.95091 9.14783 7.80428 9.0603 7.6921C8.76384 7.31244 8.36252 7.04042 7.97041 6.76964C7.80098 6.65242 7.568 6.68872 7.4432 6.85474L7.11783 7.35042C7.0817 7.40539 7.00993 7.4243 6.95283 7.39164C6.73265 7.26575 6.4116 7.05109 6.18063 6.82012C5.94994 6.58943 5.74833 6.2829 5.63518 6.0769C5.60544 6.02274 5.6219 5.95584 5.67147 5.91901L6.1717 5.54753C6.32087 5.4184 6.34709 5.19906 6.23729 5.03841C5.99419 4.68276 5.71101 4.23074 5.30113 3.93177C5.18918 3.85011 5.04758 3.84095 4.93066 3.89105C4.4324 4.10459 4.00126 4.65145 4.02197 5.21427C4.03557 5.58366 4.18 6.62978 5.27551 7.7253Z" fill="#1A1C1F"/>
</svg>
